<svg id="Layer_1" data-name="Layer 1" xmlns="http://www.w3.org/2000/svg" viewBox="0 0 173.69 30"><defs><style>.cls-1,.cls-2{fill:#22b47e;}.cls-1{fill-rule:evenodd;}</style></defs><path class="cls-1" d="M30,15A15,15,0,0,1,16.17,30,24.25,24.25,0,0,1,15,22.53V18.79a9.36,9.36,0,0,0,3.75,7.49,15,15,0,0,0,4.54-5C26.92,14.86,20.61,5.92,15,1.87c-5.61,4-11.93,13-8.3,19.43a15,15,0,0,0,7,6.37L13.32,30A15,15,0,1,1,30,15Z" transform="translate(0)"/><path class="cls-2" d="M41.24,15.22a7.36,7.36,0,1,1,7.34,7.37,5.73,5.73,0,0,1-4.51-2.06v7.54H41.24Zm7.34,4.65a4.55,4.55,0,0,0,4.57-4.65,4.57,4.57,0,1,0-9.14,0,4.58,4.58,0,0,0,4.57,4.66Zm16.16,2.71a7.37,7.37,0,1,1,7.34-7.4v7.18h-2.8V20.1a5.09,5.09,0,0,1-4.54,2.49Zm0-2.71a4.52,4.52,0,0,0,4.54-4.65,4.5,4.5,0,0,0-4.54-4.65,4.55,4.55,0,0,0-4.6,4.65,4.58,4.58,0,0,0,4.6,4.66Zm15.59,8.19a6.36,6.36,0,0,1-6.08-4.42h3.14a3.25,3.25,0,0,0,2.94,1.71A3.22,3.22,0,0,0,83.82,22v-.77a4.71,4.71,0,0,1-3.46,1.37c-3.65,0-6.28-2.2-6.28-7V8.08h2.8v7.51c0,2.91,1.26,4.28,3.48,4.28s3.49-1.34,3.49-4.11V8.08h2.79V21.64a6.17,6.17,0,0,1-6.28,6.43ZM104.44,7.85c3.57,0,6.2,2.2,6.2,7v7.51h-2.8V14.85c0-2.92-1.23-4.29-3.4-4.29s-3.4,1.37-3.4,4.29v7.51H98.25V14.85c0-2.92-1.23-4.29-3.4-4.29s-3.4,1.37-3.4,4.29v7.51h-2.8V14.85c0-4.8,2.63-7,6.2-7a5.13,5.13,0,0,1,4.79,2.66A5.14,5.14,0,0,1,104.44,7.85Zm15.14,0a7.37,7.37,0,1,1-7.37,7.37h0a7.35,7.35,0,0,1,7.33-7.37h0Zm0,2.71a4.56,4.56,0,0,0-4.6,4.66,4.57,4.57,0,1,0,9.14,0,4.52,4.52,0,0,0-4.55-4.66Zm21.47,11.8h-2.8V14.85c0-2.92-1.25-4.29-3.48-4.29s-3.49,1.37-3.49,4.29v7.51h-2.8V14.85c0-4.8,2.63-7,6.28-7s6.29,2.2,6.29,7ZM150,28.07a7.36,7.36,0,0,1-6.75-4.43h3.37A4.19,4.19,0,0,0,150,25.36c2.46,0,4.52-1.6,4.52-4V20.7A6.34,6.34,0,0,1,150,22.59a7.37,7.37,0,1,1,7.37-7.37h0V20.7a7.35,7.35,0,0,1-7.33,7.37Zm0-8.19a4.52,4.52,0,0,0,4.54-4.65A4.51,4.51,0,0,0,150,10.57a4.56,4.56,0,0,0-4.59,4.66A4.57,4.57,0,0,0,150,19.88Zm16.29-12a7.36,7.36,0,1,1-.05,0h.05Zm0,2.72a4.54,4.54,0,0,0-4.59,4.65,4.57,4.57,0,0,0,4.59,4.65,4.52,4.52,0,0,0,4.54-4.65,4.51,4.51,0,0,0-4.54-4.66Z" transform="translate(0)"/></svg>